<?xml version="1.0" encoding="UTF-8" standalone="no"?><svg xmlns="http://www.w3.org/2000/svg" xmlns:xlink="http://www.w3.org/1999/xlink" contentStyleType="text/css" height="480px" preserveAspectRatio="none" style="width:1170px;height:480px;background:#FFFFFF;" version="1.1" viewBox="0 0 1170 480" width="1170px" zoomAndPan="magnify"><defs/><g><!--MD5=[354e8650cefe639d77b0834953981666]
class Utilisateur--><g id="elem_Utilisateur"><rect codeLine="1" fill="#F1F1F1" height="210.9688" id="Utilisateur" rx="2.5" ry="2.5" style="stroke:#181818;stroke-width:0.5;" width="534" x="7" y="15"/><ellipse cx="235.75" cy="31" fill="#ADD1B2" rx="11" ry="11" style="stroke:#181818;stroke-width:1.0;"/><path d="M238.7188,36.6406 Q238.1406,36.9375 237.5,37.0781 Q236.8594,37.2344 236.1563,37.2344 Q233.6563,37.2344 232.3281,35.5938 Q231.0156,33.9375 231.0156,30.8125 Q231.0156,27.6875 232.3281,26.0313 Q233.6563,24.375 236.1563,24.375 Q236.8594,24.375 237.5,24.5313 Q238.1563,24.6875 238.7188,24.9844 L238.7188,27.7031 Q238.0938,27.125 237.5,26.8594 Q236.9063,26.5781 236.2813,26.5781 Q234.9375,26.5781 234.25,27.6563 Q233.5625,28.7188 233.5625,30.8125 Q233.5625,32.9063 234.25,33.9844 Q234.9375,35.0469 236.2813,35.0469 Q236.9063,35.0469 237.5,34.7813 Q238.0938,34.5 238.7188,33.9219 L238.7188,36.6406 Z " fill="#000000"/><text fill="#000000" font-family="sans-serif" font-size="14" lengthAdjust="spacing" textLength="68" x="256.25" y="35.8467">Utilisateur</text><line style="stroke:#181818;stroke-width:0.5;" x1="8" x2="540" y1="47" y2="47"/><ellipse cx="18" cy="60.6484" fill="none" rx="3" ry="3" style="stroke:#038048;stroke-width:1.0;"/><text fill="#000000" font-family="sans-serif" font-size="14" lengthAdjust="spacing" textLength="61" x="27" y="63.9951">id: String</text><ellipse cx="18" cy="76.9453" fill="none" rx="3" ry="3" style="stroke:#038048;stroke-width:1.0;"/><text fill="#000000" font-family="sans-serif" font-size="14" lengthAdjust="spacing" textLength="80" x="27" y="80.292">nom: String</text><ellipse cx="18" cy="93.2422" fill="none" rx="3" ry="3" style="stroke:#038048;stroke-width:1.0;"/><text fill="#000000" font-family="sans-serif" font-size="14" lengthAdjust="spacing" textLength="85" x="27" y="96.5889">email: String</text><ellipse cx="18" cy="109.5391" fill="none" rx="3" ry="3" style="stroke:#038048;stroke-width:1.0;"/><text fill="#000000" font-family="sans-serif" font-size="14" lengthAdjust="spacing" textLength="138" x="27" y="112.8857">motDePasse: String</text><line style="stroke:#181818;stroke-width:0.5;" x1="8" x2="540" y1="120.1875" y2="120.1875"/><ellipse cx="18" cy="133.8359" fill="#84BE84" rx="3" ry="3" style="stroke:#038048;stroke-width:1.0;"/><text fill="#000000" font-family="sans-serif" font-size="14" lengthAdjust="spacing" textLength="497" x="27" y="137.1826">reserverEvenement(evenement: Evenement, nbBillets: int): Reservation</text><ellipse cx="18" cy="150.1328" fill="#84BE84" rx="3" ry="3" style="stroke:#038048;stroke-width:1.0;"/><text fill="#000000" font-family="sans-serif" font-size="14" lengthAdjust="spacing" textLength="396" x="27" y="153.4795">seConnecter(email: String, motDePasse: String): boolean</text><ellipse cx="18" cy="166.4297" fill="#84BE84" rx="3" ry="3" style="stroke:#038048;stroke-width:1.0;"/><text fill="#000000" font-family="sans-serif" font-size="14" lengthAdjust="spacing" textLength="155" x="27" y="169.7764">seDeconnecter(): void</text><ellipse cx="18" cy="182.7266" fill="#84BE84" rx="3" ry="3" style="stroke:#038048;stroke-width:1.0;"/><text fill="#000000" font-family="sans-serif" font-size="14" lengthAdjust="spacing" textLength="367" x="27" y="186.0732">quitterEvenement(reservation: Reservation): boolean</text><ellipse cx="18" cy="199.0234" fill="#84BE84" rx="3" ry="3" style="stroke:#038048;stroke-width:1.0;"/><text fill="#000000" font-family="sans-serif" font-size="14" lengthAdjust="spacing" textLength="508" x="27" y="202.3701">mettreAJourProfil(nom: String, email: String, motDePasse: String): boolean</text><ellipse cx="18" cy="215.3203" fill="#84BE84" rx="3" ry="3" style="stroke:#038048;stroke-width:1.0;"/><text fill="#000000" font-family="sans-serif" font-size="14" lengthAdjust="spacing" textLength="262" x="27" y="218.667">voirReservations(): List&lt;Reservation&gt;</text></g><!--MD5=[9fe7c132f383bebaa24d83281b6c42fc]
class Evenement--><g id="elem_Evenement"><rect codeLine="14" fill="#F1F1F1" height="227.2656" id="Evenement" rx="2.5" ry="2.5" style="stroke:#181818;stroke-width:0.5;" width="587" x="576.5" y="7"/><ellipse cx="826.25" cy="23" fill="#ADD1B2" rx="11" ry="11" style="stroke:#181818;stroke-width:1.0;"/><path d="M829.2188,28.6406 Q828.6406,28.9375 828,29.0781 Q827.3594,29.2344 826.6563,29.2344 Q824.1563,29.2344 822.8281,27.5938 Q821.5156,25.9375 821.5156,22.8125 Q821.5156,19.6875 822.8281,18.0313 Q824.1563,16.375 826.6563,16.375 Q827.3594,16.375 828,16.5313 Q828.6563,16.6875 829.2188,16.9844 L829.2188,19.7031 Q828.5938,19.125 828,18.8594 Q827.4063,18.5781 826.7813,18.5781 Q825.4375,18.5781 824.75,19.6563 Q824.0625,20.7188 824.0625,22.8125 Q824.0625,24.9063 824.75,25.9844 Q825.4375,27.0469 826.7813,27.0469 Q827.4063,27.0469 828,26.7813 Q828.5938,26.5 829.2188,25.9219 L829.2188,28.6406 Z " fill="#000000"/><text fill="#000000" font-family="sans-serif" font-size="14" lengthAdjust="spacing" textLength="79" x="846.75" y="27.8467">Evenement</text><line style="stroke:#181818;stroke-width:0.5;" x1="577.5" x2="1162.5" y1="39" y2="39"/><ellipse cx="587.5" cy="52.6484" fill="none" rx="3" ry="3" style="stroke:#038048;stroke-width:1.0;"/><text fill="#000000" font-family="sans-serif" font-size="14" lengthAdjust="spacing" textLength="61" x="596.5" y="55.9951">id: String</text><ellipse cx="587.5" cy="68.9453" fill="none" rx="3" ry="3" style="stroke:#038048;stroke-width:1.0;"/><text fill="#000000" font-family="sans-serif" font-size="14" lengthAdjust="spacing" textLength="76" x="596.5" y="72.292">titre: String</text><ellipse cx="587.5" cy="85.2422" fill="none" rx="3" ry="3" style="stroke:#038048;stroke-width:1.0;"/><text fill="#000000" font-family="sans-serif" font-size="14" lengthAdjust="spacing" textLength="126" x="596.5" y="88.5889">description: String</text><ellipse cx="587.5" cy="101.5391" fill="none" rx="3" ry="3" style="stroke:#038048;stroke-width:1.0;"/><text fill="#000000" font-family="sans-serif" font-size="14" lengthAdjust="spacing" textLength="73" x="596.5" y="104.8857">lieu: String</text><ellipse cx="587.5" cy="117.8359" fill="none" rx="3" ry="3" style="stroke:#038048;stroke-width:1.0;"/><text fill="#000000" font-family="sans-serif" font-size="14" lengthAdjust="spacing" textLength="73" x="596.5" y="121.1826">date: Date</text><ellipse cx="587.5" cy="134.1328" fill="none" rx="3" ry="3" style="stroke:#038048;stroke-width:1.0;"/><text fill="#000000" font-family="sans-serif" font-size="14" lengthAdjust="spacing" textLength="84" x="596.5" y="137.4795">capacite: int</text><ellipse cx="587.5" cy="150.4297" fill="none" rx="3" ry="3" style="stroke:#038048;stroke-width:1.0;"/><text fill="#000000" font-family="sans-serif" font-size="14" lengthAdjust="spacing" textLength="142" x="596.5" y="153.7764">placesRestantes: int</text><line style="stroke:#181818;stroke-width:0.5;" x1="577.5" x2="1162.5" y1="161.0781" y2="161.0781"/><ellipse cx="587.5" cy="174.7266" fill="#84BE84" rx="3" ry="3" style="stroke:#038048;stroke-width:1.0;"/><text fill="#000000" font-family="sans-serif" font-size="14" lengthAdjust="spacing" textLength="155" x="596.5" y="178.0732">estComplet(): boolean</text><ellipse cx="587.5" cy="191.0234" fill="#84BE84" rx="3" ry="3" style="stroke:#038048;stroke-width:1.0;"/><text fill="#000000" font-family="sans-serif" font-size="14" lengthAdjust="spacing" textLength="561" x="596.5" y="194.3701">ajouterCommentaire(utilisateur: Utilisateur, commentaire: Commentaire): boolean</text><ellipse cx="587.5" cy="207.3203" fill="#84BE84" rx="3" ry="3" style="stroke:#038048;stroke-width:1.0;"/><text fill="#000000" font-family="sans-serif" font-size="14" lengthAdjust="spacing" textLength="284" x="596.5" y="210.667">voirCommentaires(): List&lt;Commentaire&gt;</text><ellipse cx="587.5" cy="223.6172" fill="#84BE84" rx="3" ry="3" style="stroke:#038048;stroke-width:1.0;"/><text fill="#000000" font-family="sans-serif" font-size="14" lengthAdjust="spacing" textLength="401" x="596.5" y="226.9639">rechercherEvenements(critere: String): List&lt;Evenement&gt;</text></g><!--MD5=[9c46470aa33a0c75e6d1dfdefc2f9c22]
class Reservation--><g id="elem_Reservation"><rect codeLine="28" fill="#F1F1F1" height="162.0781" id="Reservation" rx="2.5" ry="2.5" style="stroke:#181818;stroke-width:0.5;" width="235" x="363.5" y="311"/><ellipse cx="435.75" cy="327" fill="#ADD1B2" rx="11" ry="11" style="stroke:#181818;stroke-width:1.0;"/><path d="M438.7188,332.6406 Q438.1406,332.9375 437.5,333.0781 Q436.8594,333.2344 436.1563,333.2344 Q433.6563,333.2344 432.3281,331.5938 Q431.0156,329.9375 431.0156,326.8125 Q431.0156,323.6875 432.3281,322.0313 Q433.6563,320.375 436.1563,320.375 Q436.8594,320.375 437.5,320.5313 Q438.1563,320.6875 438.7188,320.9844 L438.7188,323.7031 Q438.0938,323.125 437.5,322.8594 Q436.9063,322.5781 436.2813,322.5781 Q434.9375,322.5781 434.25,323.6563 Q433.5625,324.7188 433.5625,326.8125 Q433.5625,328.9063 434.25,329.9844 Q434.9375,331.0469 436.2813,331.0469 Q436.9063,331.0469 437.5,330.7813 Q438.0938,330.5 438.7188,329.9219 L438.7188,332.6406 Z " fill="#000000"/><text fill="#000000" font-family="sans-serif" font-size="14" lengthAdjust="spacing" textLength="82" x="456.25" y="331.8467">Reservation</text><line style="stroke:#181818;stroke-width:0.5;" x1="364.5" x2="597.5" y1="343" y2="343"/><ellipse cx="374.5" cy="356.6484" fill="none" rx="3" ry="3" style="stroke:#038048;stroke-width:1.0;"/><text fill="#000000" font-family="sans-serif" font-size="14" lengthAdjust="spacing" textLength="61" x="383.5" y="359.9951">id: String</text><ellipse cx="374.5" cy="372.9453" fill="none" rx="3" ry="3" style="stroke:#038048;stroke-width:1.0;"/><text fill="#000000" font-family="sans-serif" font-size="14" lengthAdjust="spacing" textLength="144" x="383.5" y="376.292">utilisateur: Utilisateur</text><ellipse cx="374.5" cy="389.2422" fill="none" rx="3" ry="3" style="stroke:#038048;stroke-width:1.0;"/><text fill="#000000" font-family="sans-serif" font-size="14" lengthAdjust="spacing" textLength="167" x="383.5" y="392.5889">evenement: Evenement</text><ellipse cx="374.5" cy="405.5391" fill="none" rx="3" ry="3" style="stroke:#038048;stroke-width:1.0;"/><text fill="#000000" font-family="sans-serif" font-size="14" lengthAdjust="spacing" textLength="85" x="383.5" y="408.8857">nbBillets: int</text><ellipse cx="374.5" cy="421.8359" fill="none" rx="3" ry="3" style="stroke:#038048;stroke-width:1.0;"/><text fill="#000000" font-family="sans-serif" font-size="14" lengthAdjust="spacing" textLength="190" x="383.5" y="425.1826">numeroConfirmation: String</text><line style="stroke:#181818;stroke-width:0.5;" x1="364.5" x2="597.5" y1="432.4844" y2="432.4844"/><ellipse cx="374.5" cy="446.1328" fill="#84BE84" rx="3" ry="3" style="stroke:#038048;stroke-width:1.0;"/><text fill="#000000" font-family="sans-serif" font-size="14" lengthAdjust="spacing" textLength="172" x="383.5" y="449.4795">genererQRCode(): String</text><ellipse cx="374.5" cy="462.4297" fill="#84BE84" rx="3" ry="3" style="stroke:#038048;stroke-width:1.0;"/><text fill="#000000" font-family="sans-serif" font-size="14" lengthAdjust="spacing" textLength="209" x="383.5" y="465.7764">annulerReservation(): boolean</text></g><!--MD5=[c39d93e13c7ea6df074d806a23a70829]
class Commentaire--><g id="elem_Commentaire"><rect codeLine="38" fill="#F1F1F1" height="162.0781" id="Commentaire" rx="2.5" ry="2.5" style="stroke:#181818;stroke-width:0.5;" width="333" x="668.5" y="311"/><ellipse cx="784.25" cy="327" fill="#ADD1B2" rx="11" ry="11" style="stroke:#181818;stroke-width:1.0;"/><path d="M787.2188,332.6406 Q786.6406,332.9375 786,333.0781 Q785.3594,333.2344 784.6563,333.2344 Q782.1563,333.2344 780.8281,331.5938 Q779.5156,329.9375 779.5156,326.8125 Q779.5156,323.6875 780.8281,322.0313 Q782.1563,320.375 784.6563,320.375 Q785.3594,320.375 786,320.5313 Q786.6563,320.6875 787.2188,320.9844 L787.2188,323.7031 Q786.5938,323.125 786,322.8594 Q785.4063,322.5781 784.7813,322.5781 Q783.4375,322.5781 782.75,323.6563 Q782.0625,324.7188 782.0625,326.8125 Q782.0625,328.9063 782.75,329.9844 Q783.4375,331.0469 784.7813,331.0469 Q785.4063,331.0469 786,330.7813 Q786.5938,330.5 787.2188,329.9219 L787.2188,332.6406 Z " fill="#000000"/><text fill="#000000" font-family="sans-serif" font-size="14" lengthAdjust="spacing" textLength="93" x="804.75" y="331.8467">Commentaire</text><line style="stroke:#181818;stroke-width:0.5;" x1="669.5" x2="1000.5" y1="343" y2="343"/><ellipse cx="679.5" cy="356.6484" fill="none" rx="3" ry="3" style="stroke:#038048;stroke-width:1.0;"/><text fill="#000000" font-family="sans-serif" font-size="14" lengthAdjust="spacing" textLength="61" x="688.5" y="359.9951">id: String</text><ellipse cx="679.5" cy="372.9453" fill="none" rx="3" ry="3" style="stroke:#038048;stroke-width:1.0;"/><text fill="#000000" font-family="sans-serif" font-size="14" lengthAdjust="spacing" textLength="144" x="688.5" y="376.292">utilisateur: Utilisateur</text><ellipse cx="679.5" cy="389.2422" fill="none" rx="3" ry="3" style="stroke:#038048;stroke-width:1.0;"/><text fill="#000000" font-family="sans-serif" font-size="14" lengthAdjust="spacing" textLength="167" x="688.5" y="392.5889">evenement: Evenement</text><ellipse cx="679.5" cy="405.5391" fill="none" rx="3" ry="3" style="stroke:#038048;stroke-width:1.0;"/><text fill="#000000" font-family="sans-serif" font-size="14" lengthAdjust="spacing" textLength="84" x="688.5" y="408.8857">texte: String</text><ellipse cx="679.5" cy="421.8359" fill="none" rx="3" ry="3" style="stroke:#038048;stroke-width:1.0;"/><text fill="#000000" font-family="sans-serif" font-size="14" lengthAdjust="spacing" textLength="73" x="688.5" y="425.1826">date: Date</text><line style="stroke:#181818;stroke-width:0.5;" x1="669.5" x2="1000.5" y1="432.4844" y2="432.4844"/><ellipse cx="679.5" cy="446.1328" fill="#84BE84" rx="3" ry="3" style="stroke:#038048;stroke-width:1.0;"/><text fill="#000000" font-family="sans-serif" font-size="14" lengthAdjust="spacing" textLength="307" x="688.5" y="449.4795">modifierCommentaire(texte: String): boolean</text><ellipse cx="679.5" cy="462.4297" fill="#84BE84" rx="3" ry="3" style="stroke:#038048;stroke-width:1.0;"/><text fill="#000000" font-family="sans-serif" font-size="14" lengthAdjust="spacing" textLength="238" x="688.5" y="465.7764">supprimerCommentaire(): boolean</text></g><!--MD5=[159cbb5a4d01e65008f4e2c6ccabc117]
link Utilisateur to Reservation--><g id="link_Utilisateur_Reservation"><path codeLine="48" d="M354.33,226.08 C374.82,252.77 396.6,281.11 416.21,306.64 " fill="none" id="Utilisateur-to-Reservation" style="stroke:#181818;stroke-width:1.0;"/><polygon fill="#181818" points="419.33,310.72,417.0098,301.1483,416.2801,306.7579,410.6705,306.0282,419.33,310.72" style="stroke:#181818;stroke-width:1.0;"/><text fill="#000000" font-family="sans-serif" font-size="13" lengthAdjust="spacing" textLength="43" x="398" y="277.0669">makes</text><text fill="#000000" font-family="sans-serif" font-size="13" lengthAdjust="spacing" textLength="8" x="351.697" y="246.1036">1</text><text fill="#000000" font-family="sans-serif" font-size="13" lengthAdjust="spacing" textLength="7" x="406.5258" y="299.8824">*</text></g><!--MD5=[fb7c8c78a370098605583fc7bca3d49b]
link Evenement to Reservation--><g id="link_Evenement_Reservation"><path codeLine="49" d="M707.56,234.04 C671.88,258.76 634.7,284.51 601.04,307.84 " fill="none" id="Evenement-to-Reservation" style="stroke:#181818;stroke-width:1.0;"/><polygon fill="#181818" points="596.53,310.96,606.2052,309.1189,600.6389,308.111,601.6468,302.5446,596.53,310.96" style="stroke:#181818;stroke-width:1.0;"/><text fill="#000000" font-family="sans-serif" font-size="13" lengthAdjust="spacing" textLength="51" x="665" y="277.0669">involves</text><text fill="#000000" font-family="sans-serif" font-size="13" lengthAdjust="spacing" textLength="8" x="688.3773" y="254.2348">1</text><text fill="#000000" font-family="sans-serif" font-size="13" lengthAdjust="spacing" textLength="7" x="599.8578" y="299.8671">*</text></g><!--MD5=[5d1b0db2235444ca9206797d95de78a9]
link Evenement to Commentaire--><g id="link_Evenement_Commentaire"><path codeLine="50" d="M855.36,234.23 C852.26,258.1 849.04,282.92 846.09,305.57 " fill="none" id="Evenement-to-Commentaire" style="stroke:#181818;stroke-width:1.0;"/><polygon fill="#181818" points="845.43,310.68,850.5542,302.2692,846.073,305.7215,842.6207,301.2403,845.43,310.68" style="stroke:#181818;stroke-width:1.0;"/><text fill="#000000" font-family="sans-serif" font-size="13" lengthAdjust="spacing" textLength="23" x="852" y="277.0669">has</text><text fill="#000000" font-family="sans-serif" font-size="13" lengthAdjust="spacing" textLength="8" x="846.1076" y="254.4376">1</text><text fill="#000000" font-family="sans-serif" font-size="13" lengthAdjust="spacing" textLength="7" x="839.0472" y="299.8388">*</text></g><!--MD5=[0fa78e3703ef322234837b885cbfe8c7]
link Utilisateur to Commentaire--><g id="link_Utilisateur_Commentaire"><path codeLine="51" d="M481.35,226.14 C518.74,244.64 557.45,263.55 594,281 C616.47,291.73 640.22,302.83 663.7,313.68 " fill="none" id="Utilisateur-to-Commentaire" style="stroke:#181818;stroke-width:1.0;"/><polygon fill="#181818" points="668.39,315.85,661.9079,308.435,663.854,313.7465,658.5424,315.6926,668.39,315.85" style="stroke:#181818;stroke-width:1.0;"/><text fill="#000000" font-family="sans-serif" font-size="13" lengthAdjust="spacing" textLength="37" x="595" y="277.0669">writes</text><text fill="#000000" font-family="sans-serif" font-size="13" lengthAdjust="spacing" textLength="8" x="487.648" y="246.1678">1</text><text fill="#000000" font-family="sans-serif" font-size="13" lengthAdjust="spacing" textLength="7" x="653.6819" y="309.1277">*</text></g><!--MD5=[ffff0e0d08a02cf63608e24c0f87ae60]
@startuml
class Utilisateur {
    + id: String
    + nom: String
    + email: String
    + motDePasse: String
    + reserverEvenement(evenement: Evenement, nbBillets: int): Reservation
    + seConnecter(email: String, motDePasse: String): boolean
    + seDeconnecter(): void
    + quitterEvenement(reservation: Reservation): boolean
    + mettreAJourProfil(nom: String, email: String, motDePasse: String): boolean
    + voirReservations(): List<Reservation>
}

class Evenement {
    + id: String
    + titre: String
    + description: String
    + lieu: String
    + date: Date
    + capacite: int
    + placesRestantes: int
    + estComplet(): boolean
    + ajouterCommentaire(utilisateur: Utilisateur, commentaire: Commentaire): boolean
    + voirCommentaires(): List<Commentaire>
    + rechercherEvenements(critere: String): List<Evenement>
}

class Reservation {
    + id: String
    + utilisateur: Utilisateur
    + evenement: Evenement
    + nbBillets: int
    + numeroConfirmation: String
    + genererQRCode(): String
    + annulerReservation(): boolean
}

class Commentaire {
    + id: String
    + utilisateur: Utilisateur
    + evenement: Evenement
    + texte: String
    + date: Date
    + modifierCommentaire(texte: String): boolean
    + supprimerCommentaire(): boolean
}

Utilisateur "1" - -> "*" Reservation : makes
Evenement "1" - -> "*" Reservation : involves
Evenement "1" - -> "*" Commentaire : has
Utilisateur "1" - -> "*" Commentaire : writes
@enduml

PlantUML version 1.2022.7(Mon Aug 22 17:01:30 UTC 2022)
(GPL source distribution)
Java Runtime: OpenJDK Runtime Environment
JVM: OpenJDK 64-Bit Server VM
Default Encoding: UTF-8
Language: en
Country: null
--></g></svg>