<?xml version="1.0" encoding="UTF-8" standalone="no"?><svg xmlns="http://www.w3.org/2000/svg" xmlns:xlink="http://www.w3.org/1999/xlink" contentStyleType="text/css" height="323px" preserveAspectRatio="none" style="width:2459px;height:323px;background:#FFFFFF;" version="1.1" viewBox="0 0 2459 323" width="2459px" zoomAndPan="magnify"><defs/><g><!--MD5=[ee0fec323975fbe97ba28321ad4c4bf3]
entity U--><g id="elem_U"><ellipse cx="1133" cy="14" fill="#F1F1F1" rx="8" ry="8" style="stroke:#181818;stroke-width:0.5;"/><path d="M1133,22 L1133,49 M1120,30 L1146,30 M1133,49 L1120,64 M1133,49 L1146,64 " fill="none" style="stroke:#181818;stroke-width:0.5;"/><text fill="#000000" font-family="sans-serif" font-size="14" lengthAdjust="spacing" textLength="68" x="1099" y="78.4951">Utilisateur</text></g><!--MD5=[770389ab9df153645bc6ef28055eb2b5]
entity A--><g id="elem_A"><ellipse cx="2252" cy="14" fill="#F1F1F1" rx="8" ry="8" style="stroke:#181818;stroke-width:0.5;"/><path d="M2252,22 L2252,49 M2239,30 L2265,30 M2252,49 L2239,64 M2252,49 L2265,64 " fill="none" style="stroke:#181818;stroke-width:0.5;"/><text fill="#000000" font-family="sans-serif" font-size="14" lengthAdjust="spacing" textLength="43" x="2230.5" y="78.4951">Admin</text></g><g id="elem_UC1"><ellipse cx="76.0634" cy="166.9127" fill="#F1F1F1" rx="70.0634" ry="16.4127" style="stroke:#181818;stroke-width:0.5;"/><text fill="#000000" font-family="sans-serif" font-size="14" lengthAdjust="spacing" textLength="93" x="26.5634" y="170.6602">Se connecter</text></g><g id="elem_UC2"><ellipse cx="257.9563" cy="166.7913" fill="#F1F1F1" rx="76.9563" ry="17.7913" style="stroke:#181818;stroke-width:0.5;"/><text fill="#000000" font-family="sans-serif" font-size="14" lengthAdjust="spacing" textLength="111" x="199.5675" y="170.5101">Se déconnecter</text></g><g id="elem_UC3"><ellipse cx="478.209" cy="167.0418" fill="#F1F1F1" rx="108.209" ry="24.0418" style="stroke:#181818;stroke-width:0.5;"/><text fill="#000000" font-family="sans-serif" font-size="14" lengthAdjust="spacing" textLength="182" x="387.209" y="169.8885">Consulter les événements</text></g><g id="elem_UC4"><ellipse cx="731.0557" cy="166.9111" fill="#F1F1F1" rx="110.0557" ry="24.4111" style="stroke:#181818;stroke-width:0.5;"/><text fill="#000000" font-family="sans-serif" font-size="14" lengthAdjust="spacing" textLength="186" x="638.0557" y="169.7578">Rechercher un événement</text></g><g id="elem_UC5"><ellipse cx="977.8371" cy="167.1674" fill="#F1F1F1" rx="101.3371" ry="22.6674" style="stroke:#181818;stroke-width:0.5;"/><text fill="#000000" font-family="sans-serif" font-size="14" lengthAdjust="spacing" textLength="167" x="894.3371" y="170.0141">Réserver un événement</text></g><g id="elem_UC6"><ellipse cx="1055.9278" cy="292.9856" fill="#F1F1F1" rx="100.4278" ry="22.4856" style="stroke:#181818;stroke-width:0.5;"/><text fill="#000000" font-family="sans-serif" font-size="14" lengthAdjust="spacing" textLength="165" x="973.4278" y="295.8322">Annuler une réservation</text></g><g id="elem_UC7"><ellipse cx="1296.0935" cy="166.8187" fill="#F1F1F1" rx="109.5935" ry="24.3187" style="stroke:#181818;stroke-width:0.5;"/><text fill="#000000" font-family="sans-serif" font-size="14" lengthAdjust="spacing" textLength="185" x="1203.5935" y="169.6654">Consulter ses réservations</text></g><g id="elem_UC8"><ellipse cx="1612.8822" cy="167.0764" fill="#F1F1F1" rx="100.8822" ry="22.5764" style="stroke:#181818;stroke-width:0.5;"/><text fill="#000000" font-family="sans-serif" font-size="14" lengthAdjust="spacing" textLength="166" x="1529.8822" y="169.9231">Ajouter un commentaire</text></g><g id="elem_UC9"><ellipse cx="1474.1608" cy="293.0322" fill="#F1F1F1" rx="103.1608" ry="23.0322" style="stroke:#181818;stroke-width:0.5;"/><text fill="#000000" font-family="sans-serif" font-size="14" lengthAdjust="spacing" textLength="171" x="1388.6608" y="295.8788">Modifier un commentaire</text></g><g id="elem_UC10"><ellipse cx="1751.9811" cy="293.0962" fill="#F1F1F1" rx="110.9811" ry="24.5962" style="stroke:#181818;stroke-width:0.5;"/><text fill="#000000" font-family="sans-serif" font-size="14" lengthAdjust="spacing" textLength="188" x="1657.9811" y="295.9429">Supprimer un commentaire</text></g><g id="elem_UC11"><ellipse cx="1915.9604" cy="166.9921" fill="#F1F1F1" rx="95.4604" ry="21.4921" style="stroke:#181818;stroke-width:0.5;"/><text fill="#000000" font-family="sans-serif" font-size="14" lengthAdjust="spacing" textLength="154" x="1838.9604" y="169.8388">Mettre à jour son profil</text></g><g id="elem_UC12"><ellipse cx="2141.9604" cy="166.9921" fill="#F1F1F1" rx="95.4604" ry="21.4921" style="stroke:#181818;stroke-width:0.5;"/><text fill="#000000" font-family="sans-serif" font-size="14" lengthAdjust="spacing" textLength="154" x="2064.9604" y="169.8388">Gérer les événements</text></g><g id="elem_UC13"><ellipse cx="2363.1144" cy="166.9229" fill="#F1F1F1" rx="90.1144" ry="20.4229" style="stroke:#181818;stroke-width:0.5;"/><text fill="#000000" font-family="sans-serif" font-size="14" lengthAdjust="spacing" textLength="142" x="2292.1144" y="169.7696">Gérer les utilisateurs</text></g><!--MD5=[0a70254f7fcccc78af094a57063370e0]
link U to UC1--><g id="link_U_UC1"><path d="M1098.78,45.94 C973.1,51.64 525.46,75.7 163,142.5 C149.55,144.98 135.15,148.5 122,152.07 " fill="none" id="U-to-UC1" style="stroke:#181818;stroke-width:1.0;"/><polygon fill="#181818" points="116.84,153.49,126.5798,154.9517,121.6598,152.1599,124.4516,147.2399,116.84,153.49" style="stroke:#181818;stroke-width:1.0;"/></g><!--MD5=[d339eafd5e513c6cfb3f1117410f9a34]
link U to UC2--><g id="link_U_UC2"><path d="M1098.9,47.3 C989.61,56.6 638.45,88.92 352,142.5 C338.6,145.01 324.26,148.28 310.92,151.59 " fill="none" id="U-to-UC2" style="stroke:#181818;stroke-width:1.0;"/><polygon fill="#181818" points="306.06,152.8,315.7614,154.4977,310.9107,151.5873,313.8211,146.7366,306.06,152.8" style="stroke:#181818;stroke-width:1.0;"/></g><!--MD5=[f77f2acdb179da8ec684e67fcfe8d851]
link U to UC3--><g id="link_U_UC3"><path d="M1098.89,50.77 C1014.69,66.26 790.2,107.6 603,142.5 C590.26,144.88 576.78,147.4 563.59,149.87 " fill="none" id="U-to-UC3" style="stroke:#181818;stroke-width:1.0;"/><polygon fill="#181818" points="558.35,150.86,567.9362,153.1194,563.2631,149.9317,566.4508,145.2585,558.35,150.86" style="stroke:#181818;stroke-width:1.0;"/></g><!--MD5=[9b7be194ae6f0694e7ee7df55d9413e7]
link U to UC4--><g id="link_U_UC4"><path d="M1098.73,54.86 C1032.48,74.88 885.76,119.23 799,145.45 " fill="none" id="U-to-UC4" style="stroke:#181818;stroke-width:1.0;"/><polygon fill="#181818" points="794.15,146.91,803.9215,148.1418,798.9372,145.4667,801.6123,140.4823,794.15,146.91" style="stroke:#181818;stroke-width:1.0;"/></g><!--MD5=[c18dcaead6e75b42460ecacb700e33ef]
link U to UC5--><g id="link_U_UC5"><path d="M1098.98,71.16 C1072.09,92.25 1034.85,121.44 1008.82,141.84 " fill="none" id="U-to-UC5" style="stroke:#181818;stroke-width:1.0;"/><polygon fill="#181818" points="1004.74,145.04,1014.2885,142.6264,1008.6721,141.9515,1009.347,136.3351,1004.74,145.04" style="stroke:#181818;stroke-width:1.0;"/></g><!--MD5=[acb9e8fb0c660a62ed56d3774c8d6de5]
link U to UC6--><g id="link_U_UC6"><path d="M1126.29,81.85 C1118.49,121.57 1103.95,185.82 1083,238.5 C1079.37,247.64 1074.74,257.32 1070.34,265.9 " fill="none" id="U-to-UC6" style="stroke:#181818;stroke-width:1.0;"/><polygon fill="#181818" points="1067.93,270.54,1075.6354,264.4059,1070.2399,266.1056,1068.5403,260.7101,1067.93,270.54" style="stroke:#181818;stroke-width:1.0;"/></g><!--MD5=[620f5f8f9aef7b850bda8b3f15623fb7]
link U to UC7--><g id="link_U_UC7"><path d="M1167.17,69.97 C1194.93,90.66 1233.9,119.71 1261.7,140.43 " fill="none" id="U-to-UC7" style="stroke:#181818;stroke-width:1.0;"/><polygon fill="#181818" points="1265.72,143.43,1260.9003,134.841,1261.7131,140.4392,1256.115,141.252,1265.72,143.43" style="stroke:#181818;stroke-width:1.0;"/></g><!--MD5=[1382cc62c4c7e18c801a4e91b15e9ff4]
link U to UC8--><g id="link_U_UC8"><path d="M1167.07,48.51 C1230.6,56.54 1371.03,76.83 1485,111.5 C1513.38,120.13 1543.99,133.03 1568.16,144.1 " fill="none" id="U-to-UC8" style="stroke:#181818;stroke-width:1.0;"/><polygon fill="#181818" points="1572.9,146.29,1566.3898,138.8996,1568.356,144.2038,1563.0519,146.17,1572.9,146.29" style="stroke:#181818;stroke-width:1.0;"/></g><!--MD5=[e634f82922a036086a0df39324c414dd]
link U to UC9--><g id="link_U_UC9"><path d="M1167.1,46.51 C1227.05,51.86 1351.69,71.39 1423,142.5 C1456.27,175.68 1467.85,231.41 1471.87,264.65 " fill="none" id="U-to-UC9" style="stroke:#181818;stroke-width:1.0;"/><polygon fill="#181818" points="1472.46,269.78,1475.4061,260.3821,1471.889,264.8127,1467.4584,261.2956,1472.46,269.78" style="stroke:#181818;stroke-width:1.0;"/></g><!--MD5=[a6d0f9c52e696e7700f2328f8a8c88d0]
link U to UC10--><g id="link_U_UC10"><path d="M1167.11,45.1 C1281.72,47.86 1650.33,62.87 1731,142.5 C1762.69,173.78 1761.57,229.4 1757.23,263.26 " fill="none" id="U-to-UC10" style="stroke:#181818;stroke-width:1.0;"/><polygon fill="#181818" points="1756.51,268.51,1761.7055,260.143,1757.1951,263.5572,1753.7809,259.0468,1756.51,268.51" style="stroke:#181818;stroke-width:1.0;"/></g><!--MD5=[313afbf16a1ca793f96f138c88264742]
link U to UC11--><g id="link_U_UC11"><path d="M1167.33,44.21 C1266.26,44.17 1559.77,49.67 1793,111.5 C1822,119.19 1852.86,132.88 1876.41,144.62 " fill="none" id="U-to-UC11" style="stroke:#181818;stroke-width:1.0;"/><polygon fill="#181818" points="1881.03,146.93,1874.7981,139.3035,1876.5665,144.6768,1871.1931,146.4451,1881.03,146.93" style="stroke:#181818;stroke-width:1.0;"/></g><!--MD5=[2f85eb89430d23b277543d8f44ddfe39]
link A to UC12--><g id="link_A_UC12"><path d="M2230.27,68.5 C2211.05,89.73 2183.16,120.54 2163.89,141.82 " fill="none" id="A-to-UC12" style="stroke:#181818;stroke-width:1.0;"/><polygon fill="#181818" points="2160.4,145.67,2169.41,141.6926,2163.7598,141.9671,2163.4853,136.3169,2160.4,145.67" style="stroke:#181818;stroke-width:1.0;"/></g><!--MD5=[d596e5afd8d8059daac37841b5625e08]
link A to UC13--><g id="link_A_UC13"><path d="M2273.67,68.21 C2293.38,89.8 2322.32,121.47 2341.87,142.87 " fill="none" id="A-to-UC13" style="stroke:#181818;stroke-width:1.0;"/><polygon fill="#181818" points="2345.41,146.74,2342.3049,137.3934,2342.0424,143.0442,2336.3916,142.7816,2345.41,146.74" style="stroke:#181818;stroke-width:1.0;"/></g><!--MD5=[23f849f0b8ed3146df21555be77ceecd]
reverse link UC5 to UC6--><g id="link_UC5_UC6"><path d="M994.18,193.72 C1008.47,216.45 1029.08,249.21 1042.51,270.55 " fill="none" id="UC5-backto-UC6" style="stroke:#181818;stroke-width:1.0;stroke-dasharray:7.0,7.0;"/><polygon fill="#181818" points="991.41,189.32,992.8116,199.0686,994.0703,193.5536,999.5853,194.8122,991.41,189.32" style="stroke:#181818;stroke-width:1.0;"/><text fill="#000000" font-family="sans-serif" font-size="13" lengthAdjust="spacing" textLength="51" x="1023" y="234.5669">extends</text></g><!--MD5=[992c56ecf1ced6032554a8cf34d7aa5c]
reverse link UC8 to UC9--><g id="link_UC8_UC9"><path d="M1585.44,192.59 C1559.97,215.31 1522.49,248.74 1498.16,270.45 " fill="none" id="UC8-backto-UC9" style="stroke:#181818;stroke-width:1.0;stroke-dasharray:7.0,7.0;"/><polygon fill="#181818" points="1589.42,189.03,1580.0423,192.0397,1585.6901,192.3598,1585.3699,198.0076,1589.42,189.03" style="stroke:#181818;stroke-width:1.0;"/><text fill="#000000" font-family="sans-serif" font-size="13" lengthAdjust="spacing" textLength="51" x="1553" y="234.5669">extends</text></g><!--MD5=[59c5a2764804c37dfed6530a3ea41703]
reverse link UC8 to UC10--><g id="link_UC8_UC10"><path d="M1638.61,192.77 C1652.95,206.46 1671.26,223.65 1688,238.5 C1699.59,248.78 1712.68,259.81 1723.98,269.17 " fill="none" id="UC8-backto-UC10" style="stroke:#181818;stroke-width:1.0;stroke-dasharray:7.0,7.0;"/><polygon fill="#181818" points="1634.68,189.01,1638.4189,198.1216,1638.2932,192.4661,1643.9487,192.3404,1634.68,189.01" style="stroke:#181818;stroke-width:1.0;"/><text fill="#000000" font-family="sans-serif" font-size="13" lengthAdjust="spacing" textLength="51" x="1689" y="234.5669">extends</text></g><!--MD5=[2d61bc0ee646f3c4fbf8c9ae736bba83]
@startuml
actor Utilisateur as U
actor Admin as A

usecase "Se connecter" as UC1
usecase "Se déconnecter" as UC2
usecase "Consulter les événements" as UC3
usecase "Rechercher un événement" as UC4
usecase "Réserver un événement" as UC5
usecase "Annuler une réservation" as UC6
usecase "Consulter ses réservations" as UC7
usecase "Ajouter un commentaire" as UC8
usecase "Modifier un commentaire" as UC9
usecase "Supprimer un commentaire" as UC10
usecase "Mettre à jour son profil" as UC11
usecase "Gérer les événements" as UC12
usecase "Gérer les utilisateurs" as UC13

U - -> UC1
U - -> UC2
U - -> UC3
U - -> UC4
U - -> UC5
U - -> UC6
U - -> UC7
U - -> UC8
U - -> UC9
U - -> UC10
U - -> UC11

A - -> UC12
A - -> UC13

UC5 <.. UC6 : extends
UC8 <.. UC9 : extends
UC8 <.. UC10 : extends
@enduml

PlantUML version 1.2022.7(Mon Aug 22 17:01:30 UTC 2022)
(GPL source distribution)
Java Runtime: OpenJDK Runtime Environment
JVM: OpenJDK 64-Bit Server VM
Default Encoding: UTF-8
Language: en
Country: null
--></g></svg>